<svg width="32" height="32" viewBox="0 0 32 32" fill="none" xmlns="http://www.w3.org/2000/svg">
<path d="M31.1085 0.411562C31.3116 0.396054 31.4833 0.383806 31.6208 0.374431C31.6114 0.511925 31.5992 0.683642 31.5837 0.886708C31.5391 1.47008 31.4677 2.31202 31.3602 3.3444C31.1453 5.40963 30.7865 8.23457 30.2113 11.2749C29.6359 14.3166 28.8452 17.566 27.7687 20.4832C26.69 23.4063 25.3353 25.965 23.6477 27.6525C20.9761 30.3241 17.4864 31.65 13.9952 31.65C10.504 31.65 7.01429 30.3241 4.34271 27.6525C1.78596 25.0908 0.35 21.6193 0.35 18C0.35 14.3807 1.78596 10.9092 4.34271 8.34749C6.03026 6.65994 8.58888 5.30519 11.512 4.22648C14.4292 3.14997 17.6786 2.35934 20.7203 1.7839C23.7607 1.20869 26.5856 0.849929 28.6508 0.634995C29.6832 0.527553 30.5251 0.456114 31.1085 0.411562ZM21.3214 25.3288L21.3234 25.3268C23.1315 23.5083 24.5555 20.1407 25.6393 16.3436C26.7283 12.5284 27.4912 8.21418 27.9427 4.44159L27.9956 3.99958L27.5536 4.05248C23.781 4.50398 19.4669 5.26696 15.6541 6.35596C11.8596 7.43973 8.49645 8.8638 6.68773 10.6725C2.98065 14.3796 2.71379 20.1557 5.77591 24.2109L6.08789 24.6241L6.35503 24.1806C8.84709 20.0435 12.2504 16.4971 16.277 13.8721C12.8446 17.4069 10.2364 21.7296 8.70182 26.5335L8.61575 26.8029L8.86114 26.9436C10.4086 27.8309 12.1481 28.35 13.9952 28.35C16.7684 28.35 19.3566 27.273 21.3214 25.3288Z" fill="#CBA486" stroke="white" stroke-width="0.7"/>
</svg>
