<svg width="35" height="36" viewBox="0 0 35 36" fill="none" xmlns="http://www.w3.org/2000/svg">
<path d="M34.0686 7.66144C34.0686 7.20473 33.7927 6.79321 33.3703 6.61962L17.4623 0.0844717C17.188 -0.0281572 16.8805 -0.0281572 16.6063 0.0844717L0.698299 6.61962C0.27587 6.79314 0 7.20473 0 7.66144V28.3386C0 28.7953 0.2758 29.2068 0.698299 29.3804L16.6063 35.9155C16.8776 36.027 17.1825 36.0294 17.4609 35.9155C17.4744 35.911 16.8722 36.158 33.3703 29.3804C33.7928 29.2069 34.0686 28.7953 34.0686 28.3386V7.66144ZM17.0343 13.0737L11.1728 10.6657L23.8401 5.13982L30.0936 7.70882L17.0343 13.0737ZM2.25258 9.43647L7.30969 11.514V17.3752C7.30969 17.9972 7.81398 18.5015 8.43598 18.5015C9.05797 18.5015 9.56227 17.9972 9.56227 17.3752V12.4394L15.908 15.0462V33.1934L2.25258 27.5836V9.43647ZM17.0343 2.34388L20.9387 3.94785L8.2714 9.47378L3.97496 7.70875L17.0343 2.34388ZM18.1606 15.0462L31.816 9.43647V27.5836L18.1606 33.1934V15.0462Z" fill="#CBA486"/>
</svg>
