<svg width="31" height="36" viewBox="0 0 31 36" fill="none" xmlns="http://www.w3.org/2000/svg">
<path d="M27.4113 7.71501L20.6007 14.5335L17.8842 11.817L18.9212 10.78L20.0131 9.68814L18.469 9.67047L15.436 9.63576V9.63571H15.4286C9.39423 9.63571 4.49286 14.5427 4.49286 20.5714C4.49286 26.6002 9.39423 31.5071 15.4286 31.5071C21.2445 31.5071 26.008 26.949 26.3452 21.2214H30.1931C29.8528 29.0835 23.3699 35.35 15.4286 35.35C7.26956 35.35 0.65 28.7353 0.65 20.5714C0.65 12.4076 7.26956 5.79286 15.4286 5.79286H18.4821H20.059L18.9402 4.68168L17.8858 3.63443L20.6015 0.91878L27.4113 7.71501Z" fill="#CBA486" stroke="white" stroke-width="1.3"/>
</svg>
