<svg width="42" height="26" viewBox="0 0 42 26" fill="none" xmlns="http://www.w3.org/2000/svg">
<path d="M39.1971 26L2.16667 26C1.57986 26 1.07205 25.7912 0.643229 25.3737C0.21441 24.9562 0 24.4427 0 23.8333V2.16667C0 1.57986 0.208767 1.07205 0.626302 0.643229C1.04384 0.21441 1.55729 0 2.16667 0L39.1971 3.09944e-06C39.8065 3.09944e-06 40.3199 0.214413 40.7374 0.643232C41.155 1.07205 41.3637 1.57986 41.3637 2.16667V23.8333C41.3637 24.4201 41.155 24.928 40.7374 25.3568C40.3199 25.7856 39.8065 26 39.1971 26ZM25.2122 6.5C23.5647 6.5 22.1202 7.06424 20.8789 8.19271C19.6376 7.06424 18.1931 6.5 16.5456 6.5C14.74 6.5 13.2053 7.13759 11.9414 8.41276C10.6775 9.68794 10.0456 11.2227 10.0456 13.0169C10.0456 14.8112 10.6775 16.3403 11.9414 17.6042C13.2053 18.8681 14.74 19.5 16.5456 19.5C18.1931 19.5 19.6376 18.9358 20.8789 17.8073C22.1202 18.9358 23.5647 19.5 25.2122 19.5C26.9952 19.5 28.5243 18.8681 29.7995 17.6042C31.0747 16.3403 31.7122 14.8112 31.7122 13.0169C31.7122 11.2227 31.0747 9.68794 29.7995 8.41276C28.5243 7.13759 26.9952 6.5 25.2122 6.5ZM25.2122 17.3333C24.0161 17.3333 22.9948 16.9102 22.1484 16.0638C21.3021 15.2174 20.8789 14.1962 20.8789 13C20.8789 11.8038 21.3021 10.7826 22.1484 9.9362C22.9948 9.08985 24.0161 8.66667 25.2122 8.66667C26.4084 8.66667 27.4297 9.08985 28.276 9.9362C29.1224 10.7826 29.5456 11.8038 29.5456 13C29.5456 14.1962 29.1224 15.2174 28.276 16.0638C27.4297 16.9102 26.4084 17.3333 25.2122 17.3333Z" fill="black"/>
</svg>
