<svg width="22" height="22" viewBox="0 0 22 22" fill="none" xmlns="http://www.w3.org/2000/svg">
<path d="M17.0241 11.9146C16.9167 11.807 16.7892 11.7216 16.6488 11.6634C16.5085 11.6051 16.358 11.5752 16.206 11.5752C16.054 11.5752 15.9036 11.6051 15.7632 11.6634C15.6228 11.7216 15.4953 11.807 15.3879 11.9146L13.5434 13.7596C12.6883 13.505 11.0926 12.9262 10.0813 11.9146C9.06992 10.9029 8.49135 9.30667 8.23678 8.45126L10.0813 6.60618C10.1888 6.49878 10.2741 6.37122 10.3324 6.23079C10.3906 6.09037 10.4205 5.93984 10.4205 5.78782C10.4205 5.6358 10.3906 5.48527 10.3324 5.34484C10.2741 5.20442 10.1888 5.07686 10.0813 4.96945L5.4527 0.339385C5.34533 0.231799 5.21781 0.146446 5.07743 0.0882107C4.93705 0.0299752 4.78657 0 4.6346 0C4.48263 0 4.33215 0.0299752 4.19177 0.0882107C4.05139 0.146446 3.92387 0.231799 3.8165 0.339385L0.678335 3.47857C0.238622 3.91843 -0.00900656 4.52265 0.000250573 5.13961C0.0268648 6.78791 0.463107 12.513 4.97364 17.025C9.48418 21.537 15.2074 21.9722 16.8563 22H16.8887C17.4997 22 18.0771 21.7592 18.5145 21.3217L21.6527 18.1825C21.7602 18.0751 21.8455 17.9475 21.9038 17.8071C21.962 17.6667 21.9919 17.5162 21.9919 17.3641C21.9919 17.2121 21.962 17.0616 21.9038 16.9212C21.8455 16.7807 21.7602 16.6532 21.6527 16.5458L17.0241 11.9146ZM16.8772 19.6838C15.433 19.6595 10.492 19.2717 6.60984 15.3871C2.7149 11.4909 2.33768 6.53094 2.31453 5.1153L4.6346 2.79448L7.62697 5.78782L6.13078 7.28449C5.99478 7.42044 5.89478 7.58815 5.83982 7.77246C5.78487 7.95677 5.7767 8.15188 5.81604 8.34014C5.84381 8.47326 6.52305 11.6298 8.44391 13.5513C10.3648 15.4728 13.5203 16.1522 13.6534 16.18C13.8414 16.2205 14.0367 16.2129 14.2211 16.1581C14.4055 16.1033 14.5732 16.003 14.7087 15.8663L16.206 14.3696L19.1984 17.363L16.8772 19.6838Z" fill="black"/>
</svg>
