<svg width="42" height="26" viewBox="0 0 42 26" fill="none" xmlns="http://www.w3.org/2000/svg">
<path d="M1.65605 0C0.741621 0 0 0.741414 0 1.65605V24.344C0 25.2585 0.741994 26 1.65605 26H39.7452C40.6596 26 41.4013 25.2586 41.4013 24.344V1.65605C41.4013 0.741455 40.6593 0 39.7452 0H1.65605ZM24.7269 7.7485C25.7345 7.7485 26.5421 7.97107 27.057 8.17804L26.7051 10.3917L26.4722 10.274C25.9925 10.067 25.3763 9.86783 24.5264 9.88195C23.5089 9.88195 23.0385 10.3358 23.0385 10.7605C23.0326 11.239 23.5881 11.5545 24.4966 12.0271C25.996 12.7561 26.689 13.6401 26.6793 14.8022C26.6591 16.9227 24.8856 18.2929 22.1536 18.2929C20.988 18.2801 19.8651 18.0333 19.258 17.7482L19.6229 15.4608L19.958 15.6238C20.8116 16.0052 21.3643 16.1595 22.4045 16.1595C23.1516 16.1595 23.9533 15.8467 23.9597 15.1619C23.9645 14.7148 23.6246 14.396 22.6128 13.8953C21.627 13.4066 20.32 12.588 20.3345 11.1201C20.3499 9.13449 22.1588 7.7485 24.7269 7.7485ZM3.6614 8.07325H7.85717C8.42218 8.09461 8.87834 8.27653 9.03583 8.88964L9.9402 13.5576C9.94032 13.558 9.94003 13.5597 9.9402 13.5602L10.2119 14.9588L12.7593 8.07325H15.5151L11.419 18.1519L8.66578 18.1545L6.47412 10.0217C7.77818 10.7125 8.8884 11.5119 9.53136 12.6119C9.36559 12.2638 9.14716 11.8709 8.86766 11.4837C8.54216 11.0327 7.83921 10.4505 7.54538 10.2028C6.52153 9.33971 5.13107 8.64264 3.62907 8.2738L3.6614 8.07325ZM16.611 8.08488H19.306L17.6201 18.148H14.9252L16.611 8.08488ZM31.8324 8.08488H33.874L36.0114 18.148H33.5609C33.5609 18.148 33.3178 16.9919 33.2388 16.6394C32.8536 16.6394 30.1599 16.6356 29.8568 16.6356C29.7542 16.908 29.3005 18.148 29.3005 18.148H26.5279L30.4494 8.92069C30.727 8.26498 31.2002 8.08488 31.8324 8.08488ZM32.033 10.7915C31.9003 11.1658 31.6694 11.7703 31.6849 11.7437C31.6849 11.7437 30.8553 13.9562 30.6383 14.5306L32.8182 14.5292C32.7132 14.0303 32.2102 11.6506 32.2102 11.6506L32.033 10.7916V10.7915Z" fill="black"/>
</svg>
